# xmcd
#
# Track frame offsets:
#	150
#	10121
#	27310
#	38377
#	53767
#	68910
#	80560
#	95078
#	113389
#
# Disc length: 1756 seconds
#
# Revision: 0
# Processed by: cddbd v1.5.2PL0 Copyright (c) Steve Scherf et al.
# Submitted via: EasyCDDAExtractor 11.0.0.1
#
DISCID=6206da09
DTITLE=Ewa Seferynowicz - Jestem
DYEAR=2004
DGENRE=christian
TTITLE0=Dlaczego milczysz?
TTITLE1=Skarb
TTITLE2=Drogi Ojcze
TTITLE3=Krzyz Twa droga jest
TTITLE4=Panie, mow do mnie
TTITLE5=Spiewam dla Ciebie
TTITLE6=Jestem
TTITLE7=W dniu slubu
TTITLE8=Lud Twoj czeka
EXTD=
EXTT0=
EXTT1=
EXTT2=
EXTT3=
EXTT4=
EXTT5=
EXTT6=
EXTT7=
EXTT8=
PLAYORDER=
